<svg width="58" height="80" viewBox="0 0 58 80" fill="none" xmlns="http://www.w3.org/2000/svg">
<path fill-rule="evenodd" clip-rule="evenodd" d="M34.745 73.4685C47.1369 57.7111 57.1831 44.9366 57.1831 30.5046C57.1831 13.7685 44.4135 0.201172 28.6614 0.201172C12.9093 0.201172 0.139648 13.7685 0.139648 30.5046C0.139648 46.348 10.9017 59.5213 26.0583 78.0738V78.0738C27.3883 79.7018 29.8902 79.6668 31.1835 78.0093C32.3872 76.4666 33.5765 74.9543 34.745 73.4685ZM28.6614 45.2349C36.952 45.2349 43.6728 38.514 43.6728 30.2234C43.6728 21.9328 36.952 15.212 28.6614 15.212C20.3708 15.212 13.65 21.9328 13.65 30.2234C13.65 38.514 20.3708 45.2349 28.6614 45.2349Z" fill="#C7243C"/>
</svg>
