<svg width="18" height="24" viewBox="0 0 18 24" fill="none" xmlns="http://www.w3.org/2000/svg">
<path fill-rule="evenodd" clip-rule="evenodd" d="M11.0464 22.2703C14.7394 17.5743 17.7334 13.7673 17.7334 9.46629C17.7334 4.47861 13.9278 0.435303 9.2334 0.435303C4.53898 0.435303 0.733398 4.47861 0.733398 9.46629C0.733398 14.1879 3.94068 18.1138 8.45764 23.6428C8.85401 24.128 9.59961 24.1175 9.98501 23.6236C10.3437 23.1638 10.6982 22.7131 11.0464 22.2703ZM9.2334 13.8564C11.7041 13.8564 13.7071 11.8534 13.7071 9.38269C13.7071 6.91195 11.7041 4.90901 9.2334 4.90901C6.76265 4.90901 4.75971 6.91195 4.75971 9.38269C4.75971 11.8534 6.76265 13.8564 9.2334 13.8564Z" fill="#3B444B"/>
</svg>
